<svg width="382" height="118" viewBox="0 0 382 118" fill="none" xmlns="http://www.w3.org/2000/svg">
<path d="M14.9165 53.347L32.5347 2.34696C32.8132 1.54084 33.5722 1 34.4251 1H61.75H115.693C117.067 1 118.032 2.35409 117.583 3.65304L109 28.5L99.9653 54.653C99.6868 55.4592 98.9278 56 98.0749 56H42.75H16.8069C15.4326 56 14.4678 54.6459 14.9165 53.347Z" fill="url(#paint0_linear_21_132)" stroke="black"/>
<path d="M40.2153 101.903L49.25 75.75L53.0835 64.653C53.5322 63.3541 52.5674 62 51.1931 62H23.75H15.6751C14.8222 62 14.0632 62.5408 13.7847 63.347L9.5 75.75L0.916505 100.597C0.467777 101.896 1.43261 103.25 2.80689 103.25H9.5H38.3249C39.1778 103.25 39.9368 102.709 40.2153 101.903Z" fill="url(#paint1_linear_21_132)" stroke="black"/>
<path d="M146.215 54.903L155.25 28.75L159.083 17.653C159.532 16.3541 158.567 15 157.193 15H129.75H121.675C120.822 15 120.063 15.5408 119.785 16.347L115.5 28.75L106.917 53.597C106.468 54.8959 107.433 56.25 108.807 56.25H115.5H144.325C145.178 56.25 145.937 55.7092 146.215 54.903Z" fill="url(#paint2_linear_21_132)" stroke="black"/>
<path d="M126.965 115.653L144.583 64.653C145.032 63.3541 144.067 62 142.693 62H88.75H61.4251C60.5722 62 59.8132 62.5408 59.5347 63.347L41.9165 114.347C41.4678 115.646 42.4326 117 43.8069 117H69.75H125.075C125.928 117 126.687 116.459 126.965 115.653Z" fill="url(#paint3_linear_21_132)" stroke="black"/>
<path d="M162.697 58.736C162.697 56.5173 163.177 54.544 164.137 52.816C165.097 51.0667 166.43 49.712 168.137 48.752C169.865 47.7707 171.817 47.28 173.993 47.28C176.659 47.28 178.942 47.984 180.841 49.392C182.739 50.8 184.009 52.72 184.649 55.152H178.633C178.185 54.2133 177.545 53.4987 176.713 53.008C175.902 52.5173 174.974 52.272 173.929 52.272C172.243 52.272 170.878 52.8587 169.833 54.032C168.787 55.2053 168.265 56.7733 168.265 58.736C168.265 60.6987 168.787 62.2667 169.833 63.44C170.878 64.6133 172.243 65.2 173.929 65.2C174.974 65.2 175.902 64.9547 176.713 64.464C177.545 63.9733 178.185 63.2587 178.633 62.32H184.649C184.009 64.752 182.739 66.672 180.841 68.08C178.942 69.4667 176.659 70.16 173.993 70.16C171.817 70.16 169.865 69.68 168.137 68.72C166.43 67.7387 165.097 66.384 164.137 64.656C163.177 62.928 162.697 60.9547 162.697 58.736ZM186.912 61.04C186.912 59.2053 187.253 57.5947 187.936 56.208C188.64 54.8213 189.589 53.7547 190.784 53.008C191.978 52.2613 193.312 51.888 194.784 51.888C196.042 51.888 197.141 52.144 198.08 52.656C199.04 53.168 199.776 53.84 200.288 54.672V52.144H205.76V70H200.288V67.472C199.754 68.304 199.008 68.976 198.048 69.488C197.109 70 196.01 70.256 194.752 70.256C193.301 70.256 191.978 69.8827 190.784 69.136C189.589 68.368 188.64 67.2907 187.936 65.904C187.253 64.496 186.912 62.8747 186.912 61.04ZM200.288 61.072C200.288 59.7067 199.904 58.6293 199.136 57.84C198.389 57.0507 197.472 56.656 196.384 56.656C195.296 56.656 194.368 57.0507 193.6 57.84C192.853 58.608 192.48 59.6747 192.48 61.04C192.48 62.4053 192.853 63.4933 193.6 64.304C194.368 65.0933 195.296 65.488 196.384 65.488C197.472 65.488 198.389 65.0933 199.136 64.304C199.904 63.5147 200.288 62.4373 200.288 61.072ZM215.19 54.672C215.724 53.84 216.46 53.168 217.398 52.656C218.337 52.144 219.436 51.888 220.694 51.888C222.166 51.888 223.5 52.2613 224.694 53.008C225.889 53.7547 226.828 54.8213 227.51 56.208C228.214 57.5947 228.566 59.2053 228.566 61.04C228.566 62.8747 228.214 64.496 227.51 65.904C226.828 67.2907 225.889 68.368 224.694 69.136C223.5 69.8827 222.166 70.256 220.694 70.256C219.457 70.256 218.358 70 217.398 69.488C216.46 68.976 215.724 68.3147 215.19 67.504V78.512H209.718V52.144H215.19V54.672ZM222.998 61.04C222.998 59.6747 222.614 58.608 221.846 57.84C221.1 57.0507 220.172 56.656 219.062 56.656C217.974 56.656 217.046 57.0507 216.278 57.84C215.532 58.6293 215.158 59.7067 215.158 61.072C215.158 62.4373 215.532 63.5147 216.278 64.304C217.046 65.0933 217.974 65.488 219.062 65.488C220.15 65.488 221.078 65.0933 221.846 64.304C222.614 63.4933 222.998 62.4053 222.998 61.04ZM234.189 50.288C233.229 50.288 232.44 50.0107 231.821 49.456C231.224 48.88 230.925 48.176 230.925 47.344C230.925 46.4907 231.224 45.7867 231.821 45.232C232.44 44.656 233.229 44.368 234.189 44.368C235.128 44.368 235.896 44.656 236.493 45.232C237.112 45.7867 237.421 46.4907 237.421 47.344C237.421 48.176 237.112 48.88 236.493 49.456C235.896 50.0107 235.128 50.288 234.189 50.288ZM236.909 52.144V70H231.437V52.144H236.909ZM250.827 65.36V70H248.043C246.059 70 244.512 69.52 243.403 68.56C242.293 67.5787 241.739 65.9893 241.739 63.792V56.688H239.563V52.144H241.739V47.792H247.211V52.144H250.795V56.688H247.211V63.856C247.211 64.3893 247.339 64.7733 247.595 65.008C247.851 65.2427 248.277 65.36 248.875 65.36H250.827ZM252.787 61.04C252.787 59.2053 253.128 57.5947 253.811 56.208C254.515 54.8213 255.464 53.7547 256.659 53.008C257.853 52.2613 259.187 51.888 260.659 51.888C261.917 51.888 263.016 52.144 263.955 52.656C264.915 53.168 265.651 53.84 266.163 54.672V52.144H271.635V70H266.163V67.472C265.629 68.304 264.883 68.976 263.923 69.488C262.984 70 261.885 70.256 260.627 70.256C259.176 70.256 257.853 69.8827 256.659 69.136C255.464 68.368 254.515 67.2907 253.811 65.904C253.128 64.496 252.787 62.8747 252.787 61.04ZM266.163 61.072C266.163 59.7067 265.779 58.6293 265.011 57.84C264.264 57.0507 263.347 56.656 262.259 56.656C261.171 56.656 260.243 57.0507 259.475 57.84C258.728 58.608 258.355 59.6747 258.355 61.04C258.355 62.4053 258.728 63.4933 259.475 64.304C260.243 65.0933 261.171 65.488 262.259 65.488C263.347 65.488 264.264 65.0933 265.011 64.304C265.779 63.5147 266.163 62.4373 266.163 61.072ZM281.065 46.32V70H275.593V46.32H281.065Z" fill="#5CE1E6"/>
<path d="M284.103 58.736C284.103 56.5173 284.583 54.544 285.543 52.816C286.503 51.0667 287.836 49.712 289.543 48.752C291.271 47.7707 293.223 47.28 295.399 47.28C298.066 47.28 300.348 47.984 302.247 49.392C304.146 50.8 305.415 52.72 306.055 55.152H300.039C299.591 54.2133 298.951 53.4987 298.119 53.008C297.308 52.5173 296.38 52.272 295.335 52.272C293.65 52.272 292.284 52.8587 291.239 54.032C290.194 55.2053 289.671 56.7733 289.671 58.736C289.671 60.6987 290.194 62.2667 291.239 63.44C292.284 64.6133 293.65 65.2 295.335 65.2C296.38 65.2 297.308 64.9547 298.119 64.464C298.951 63.9733 299.591 63.2587 300.039 62.32H306.055C305.415 64.752 304.146 66.672 302.247 68.08C300.348 69.4667 298.066 70.16 295.399 70.16C293.223 70.16 291.271 69.68 289.543 68.72C287.836 67.7387 286.503 66.384 285.543 64.656C284.583 62.928 284.103 60.9547 284.103 58.736ZM317.534 70.256C315.785 70.256 314.206 69.8827 312.798 69.136C311.411 68.3893 310.313 67.3227 309.502 65.936C308.713 64.5493 308.318 62.928 308.318 61.072C308.318 59.2373 308.723 57.6267 309.534 56.24C310.345 54.832 311.454 53.7547 312.862 53.008C314.27 52.2613 315.849 51.888 317.598 51.888C319.347 51.888 320.926 52.2613 322.334 53.008C323.742 53.7547 324.851 54.832 325.662 56.24C326.473 57.6267 326.878 59.2373 326.878 61.072C326.878 62.9067 326.462 64.528 325.63 65.936C324.819 67.3227 323.699 68.3893 322.27 69.136C320.862 69.8827 319.283 70.256 317.534 70.256ZM317.534 65.52C318.579 65.52 319.465 65.136 320.19 64.368C320.937 63.6 321.31 62.5013 321.31 61.072C321.31 59.6427 320.947 58.544 320.222 57.776C319.518 57.008 318.643 56.624 317.598 56.624C316.531 56.624 315.646 57.008 314.942 57.776C314.238 58.5227 313.886 59.6213 313.886 61.072C313.886 62.5013 314.227 63.6 314.91 64.368C315.614 65.136 316.489 65.52 317.534 65.52ZM328.693 61.04C328.693 59.2053 329.034 57.5947 329.717 56.208C330.421 54.8213 331.37 53.7547 332.565 53.008C333.76 52.2613 335.093 51.888 336.565 51.888C337.824 51.888 338.922 52.144 339.861 52.656C340.821 53.168 341.557 53.84 342.069 54.672V52.144H347.541V70H342.069V67.472C341.536 68.304 340.789 68.976 339.829 69.488C338.89 70 337.792 70.256 336.533 70.256C335.082 70.256 333.76 69.8827 332.565 69.136C331.37 68.368 330.421 67.2907 329.717 65.904C329.034 64.496 328.693 62.8747 328.693 61.04ZM342.069 61.072C342.069 59.7067 341.685 58.6293 340.917 57.84C340.17 57.0507 339.253 56.656 338.165 56.656C337.077 56.656 336.149 57.0507 335.381 57.84C334.634 58.608 334.261 59.6747 334.261 61.04C334.261 62.4053 334.634 63.4933 335.381 64.304C336.149 65.0933 337.077 65.488 338.165 65.488C339.253 65.488 340.17 65.0933 340.917 64.304C341.685 63.5147 342.069 62.4373 342.069 61.072ZM358.764 70.256C357.206 70.256 355.82 69.9893 354.604 69.456C353.388 68.9227 352.428 68.1973 351.724 67.28C351.02 66.3413 350.625 65.296 350.54 64.144H355.948C356.012 64.7627 356.3 65.264 356.812 65.648C357.324 66.032 357.953 66.224 358.7 66.224C359.382 66.224 359.905 66.096 360.268 65.84C360.652 65.5627 360.844 65.2107 360.844 64.784C360.844 64.272 360.577 63.8987 360.044 63.664C359.51 63.408 358.646 63.1307 357.452 62.832C356.172 62.5333 355.105 62.224 354.252 61.904C353.398 61.5627 352.662 61.04 352.044 60.336C351.425 59.6107 351.116 58.64 351.116 57.424C351.116 56.4 351.393 55.472 351.948 54.64C352.524 53.7867 353.356 53.1147 354.444 52.624C355.553 52.1333 356.865 51.888 358.38 51.888C360.62 51.888 362.38 52.4427 363.66 53.552C364.961 54.6613 365.708 56.1333 365.9 57.968H360.844C360.758 57.3493 360.481 56.8587 360.012 56.496C359.564 56.1333 358.966 55.952 358.22 55.952C357.58 55.952 357.089 56.08 356.748 56.336C356.406 56.5707 356.236 56.9013 356.236 57.328C356.236 57.84 356.502 58.224 357.036 58.48C357.59 58.736 358.444 58.992 359.596 59.248C360.918 59.5893 361.996 59.9307 362.828 60.272C363.66 60.592 364.385 61.1253 365.004 61.872C365.644 62.5973 365.974 63.5787 365.996 64.816C365.996 65.8613 365.697 66.8 365.1 67.632C364.524 68.4427 363.681 69.0827 362.572 69.552C361.484 70.0213 360.214 70.256 358.764 70.256ZM379.295 65.36V70H376.511C374.527 70 372.981 69.52 371.871 68.56C370.762 67.5787 370.207 65.9893 370.207 63.792V56.688H368.031V52.144H370.207V47.792H375.679V52.144H379.263V56.688H375.679V63.856C375.679 64.3893 375.807 64.7733 376.063 65.008C376.319 65.2427 376.746 65.36 377.343 65.36H379.295Z" fill="white"/>
<defs>
<linearGradient id="paint0_linear_21_132" x1="91.5" y1="-31.5" x2="157.279" y2="50.4859" gradientUnits="userSpaceOnUse">
<stop stop-color="#D8C047"/>
<stop offset="0.994692" stop-color="#5CE1E6"/>
<stop offset="0.994792" stop-color="#60E0E0"/>
</linearGradient>
<linearGradient id="paint1_linear_21_132" x1="18.5" y1="50" x2="45" y2="103" gradientUnits="userSpaceOnUse">
<stop stop-color="#D8C047"/>
<stop offset="0.994692" stop-color="#5CE1E6"/>
<stop offset="0.994792" stop-color="#5CE1E6"/>
</linearGradient>
<linearGradient id="paint2_linear_21_132" x1="146.75" y1="2.75" x2="161.06" y2="62.0977" gradientUnits="userSpaceOnUse">
<stop stop-color="#D8C047"/>
<stop offset="0.994692" stop-color="#5CE1E6"/>
<stop offset="0.994792" stop-color="#5CE1E6"/>
</linearGradient>
<linearGradient id="paint3_linear_21_132" x1="-6.5" y1="41" x2="145" y2="131.5" gradientUnits="userSpaceOnUse">
<stop stop-color="#D8C047"/>
<stop offset="0.994692" stop-color="#5CE1E6"/>
<stop offset="0.994792" stop-color="#64DFDC"/>
</linearGradient>
</defs>
</svg>
