<svg xmlns="http://www.w3.org/2000/svg" version="1.1" xmlns:xlink="http://www.w3.org/1999/xlink" xmlns:svgjs="http://svgjs.dev/svgjs" width="1000" height="1000" viewBox="0 0 1000 1000"><rect width="1000" height="1000" fill="#ffffff"></rect><g transform="matrix(0.7,0,0,0.7,150,281.25)"><svg viewBox="0 0 512 320" data-background-color="#ffffff" preserveAspectRatio="xMidYMid meet" height="625" width="1000" xmlns="http://www.w3.org/2000/svg" xmlns:xlink="http://www.w3.org/1999/xlink"><g id="tight-bounds" transform="matrix(1,0,0,1,0,0)"><svg viewBox="0 0 512 320" height="320" width="512"><g><svg></svg></g><g><svg viewBox="0 0 512 320" height="320" width="512"><g><path xmlns="http://www.w3.org/2000/svg" d="M96 160c0-88.366 71.634-160 160-160 88.366 0 160 71.634 160 160 0 88.366-71.634 160-160 160-88.366 0-160-71.634-160-160z" fill="#000000" fill-rule="nonzero" stroke="none" stroke-width="1" stroke-linecap="butt" stroke-linejoin="miter" stroke-miterlimit="10" stroke-dasharray="" stroke-dashoffset="0" font-family="none" font-weight="none" font-size="none" text-anchor="none" style="mix-blend-mode: normal" data-fill-palette-color="tertiary"></path></g><g transform="matrix(1,0,0,1,153.6,142.69809416939222)"><svg viewBox="0 0 204.8 34.60381166121557" height="34.60381166121557" width="204.8"><g><svg viewBox="0 0 204.8 34.60381166121557" height="34.60381166121557" width="204.8"><g><svg viewBox="0 0 263.9706328824685 44.601513986117276" height="34.60381166121557" width="204.8"><g transform="matrix(1,0,0,1,59.170632882468524,6.164174508935169)"><svg viewBox="0 0 204.8 32.27316496824694" height="32.27316496824694" width="204.8"><g><svg viewBox="0 0 204.8 32.27316496824694" height="32.27316496824694" width="204.8"><g><svg viewBox="0 0 204.8 32.27316496824694" height="32.27316496824694" width="204.8"><g transform="matrix(1,0,0,1,0,0)"><svg width="204.8" viewBox="1.6500000953674316 -40.04999923706055 338.52001953125 53.349998474121094" height="32.27316496824694" data-palette-color="#01ff70"><path d="M1.65-17.6Q1.65-22.8 3.9-26.88 6.15-30.95 10.18-33.23 14.2-35.5 19.3-35.5L19.3-35.5Q25.55-35.5 30-32.2 34.45-28.9 35.95-23.2L35.95-23.2 26.55-23.2Q25.5-25.4 23.58-26.55 21.65-27.7 19.2-27.7L19.2-27.7Q15.25-27.7 12.8-24.95 10.35-22.2 10.35-17.6L10.35-17.6Q10.35-13 12.8-10.25 15.25-7.5 19.2-7.5L19.2-7.5Q21.65-7.5 23.58-8.65 25.5-9.8 26.55-12L26.55-12 35.95-12Q34.45-6.3 30-3.03 25.55 0.25 19.3 0.25L19.3 0.25Q14.2 0.25 10.18-2.02 6.15-4.3 3.9-8.35 1.65-12.4 1.65-17.6L1.65-17.6ZM39.5-14Q39.5-18.3 41.12-21.55 42.75-24.8 45.55-26.55 48.35-28.3 51.8-28.3L51.8-28.3Q54.75-28.3 56.97-27.1 59.2-25.9 60.4-23.95L60.4-23.95 60.4-27.9 68.95-27.9 68.95 0 60.4 0 60.4-3.95Q59.15-2 56.92-0.8 54.7 0.4 51.75 0.4L51.75 0.4Q48.35 0.4 45.55-1.38 42.75-3.15 41.12-6.43 39.5-9.7 39.5-14L39.5-14ZM60.4-13.95Q60.4-17.15 58.62-19 56.85-20.85 54.3-20.85L54.3-20.85Q51.75-20.85 49.97-19.03 48.2-17.2 48.2-14L48.2-14Q48.2-10.8 49.97-8.93 51.75-7.05 54.3-7.05L54.3-7.05Q56.85-7.05 58.62-8.9 60.4-10.75 60.4-13.95L60.4-13.95ZM83.7-23.95Q84.95-25.9 87.15-27.1 89.35-28.3 92.3-28.3L92.3-28.3Q95.75-28.3 98.55-26.55 101.35-24.8 102.97-21.55 104.6-18.3 104.6-14L104.6-14Q104.6-9.7 102.97-6.43 101.35-3.15 98.55-1.38 95.75 0.4 92.3 0.4L92.3 0.4Q89.4 0.4 87.17-0.8 84.95-2 83.7-3.9L83.7-3.9 83.7 13.3 75.15 13.3 75.15-27.9 83.7-27.9 83.7-23.95ZM95.9-14Q95.9-17.2 94.12-19.03 92.35-20.85 89.75-20.85L89.75-20.85Q87.2-20.85 85.42-19 83.65-17.15 83.65-13.95L83.65-13.95Q83.65-10.75 85.42-8.9 87.2-7.05 89.75-7.05L89.75-7.05Q92.3-7.05 94.1-8.93 95.9-10.8 95.9-14L95.9-14ZM113.39-30.8Q111.14-30.8 109.72-32.13 108.29-33.45 108.29-35.4L108.29-35.4Q108.29-37.4 109.72-38.73 111.14-40.05 113.39-40.05L113.39-40.05Q115.59-40.05 117.02-38.73 118.44-37.4 118.44-35.4L118.44-35.4Q118.44-33.45 117.02-32.13 115.59-30.8 113.39-30.8L113.39-30.8ZM109.09-27.9L117.64-27.9 117.64 0 109.09 0 109.09-27.9ZM136.34-7.25L139.39-7.25 139.39 0 135.04 0Q130.39 0 127.79-2.27 125.19-4.55 125.19-9.7L125.19-9.7 125.19-20.8 121.79-20.8 121.79-27.9 125.19-27.9 125.19-34.7 133.74-34.7 133.74-27.9 139.34-27.9 139.34-20.8 133.74-20.8 133.74-9.6Q133.74-8.35 134.34-7.8 134.94-7.25 136.34-7.25L136.34-7.25ZM142.44-14Q142.44-18.3 144.06-21.55 145.69-24.8 148.49-26.55 151.29-28.3 154.74-28.3L154.74-28.3Q157.69-28.3 159.91-27.1 162.14-25.9 163.34-23.95L163.34-23.95 163.34-27.9 171.89-27.9 171.89 0 163.34 0 163.34-3.95Q162.09-2 159.86-0.8 157.64 0.4 154.69 0.4L154.69 0.4Q151.29 0.4 148.49-1.38 145.69-3.15 144.06-6.43 142.44-9.7 142.44-14L142.44-14ZM163.34-13.95Q163.34-17.15 161.56-19 159.79-20.85 157.24-20.85L157.24-20.85Q154.69-20.85 152.91-19.03 151.14-17.2 151.14-14L151.14-14Q151.14-10.8 152.91-8.93 154.69-7.05 157.24-7.05L157.24-7.05Q159.79-7.05 161.56-8.9 163.34-10.75 163.34-13.95L163.34-13.95ZM178.09-37L186.64-37 186.64 0 178.09 0 178.09-37ZM191.38-17.6Q191.38-22.8 193.63-26.88 195.88-30.95 199.91-33.23 203.93-35.5 209.03-35.5L209.03-35.5Q215.28-35.5 219.73-32.2 224.18-28.9 225.68-23.2L225.68-23.2 216.28-23.2Q215.23-25.4 213.31-26.55 211.38-27.7 208.93-27.7L208.93-27.7Q204.98-27.7 202.53-24.95 200.08-22.2 200.08-17.6L200.08-17.6Q200.08-13 202.53-10.25 204.98-7.5 208.93-7.5L208.93-7.5Q211.38-7.5 213.31-8.65 215.23-9.8 216.28-12L216.28-12 225.68-12Q224.18-6.3 219.73-3.03 215.28 0.25 209.03 0.25L209.03 0.25Q203.93 0.25 199.91-2.02 195.88-4.3 193.63-8.35 191.38-12.4 191.38-17.6L191.38-17.6ZM243.63 0.4Q239.53 0.4 236.26-1.35 232.98-3.1 231.11-6.35 229.23-9.6 229.23-13.95L229.23-13.95Q229.23-18.25 231.13-21.53 233.03-24.8 236.33-26.55 239.63-28.3 243.73-28.3L243.73-28.3Q247.83-28.3 251.13-26.55 254.43-24.8 256.33-21.53 258.23-18.25 258.23-13.95L258.23-13.95Q258.23-9.65 256.31-6.38 254.38-3.1 251.06-1.35 247.73 0.4 243.63 0.4L243.63 0.4ZM243.63-7Q246.08-7 247.81-8.8 249.53-10.6 249.53-13.95L249.53-13.95Q249.53-17.3 247.86-19.1 246.18-20.9 243.73-20.9L243.73-20.9Q241.23-20.9 239.58-19.13 237.93-17.35 237.93-13.95L237.93-13.95Q237.93-10.6 239.56-8.8 241.18-7 243.63-7L243.63-7ZM261.08-14Q261.08-18.3 262.7-21.55 264.33-24.8 267.13-26.55 269.93-28.3 273.38-28.3L273.38-28.3Q276.33-28.3 278.55-27.1 280.78-25.9 281.98-23.95L281.98-23.95 281.98-27.9 290.53-27.9 290.53 0 281.98 0 281.98-3.95Q280.73-2 278.5-0.8 276.28 0.4 273.33 0.4L273.33 0.4Q269.93 0.4 267.13-1.38 264.33-3.15 262.7-6.43 261.08-9.7 261.08-14L261.08-14ZM281.98-13.95Q281.98-17.15 280.2-19 278.43-20.85 275.88-20.85L275.88-20.85Q273.33-20.85 271.55-19.03 269.78-17.2 269.78-14L269.78-14Q269.78-10.8 271.55-8.93 273.33-7.05 275.88-7.05L275.88-7.05Q278.43-7.05 280.2-8.9 281.98-10.75 281.98-13.95L281.98-13.95ZM308.07 0.4Q304.43 0.4 301.57-0.85 298.73-2.1 297.07-4.28 295.43-6.45 295.23-9.15L295.23-9.15 303.68-9.15Q303.82-7.7 305.02-6.8 306.23-5.9 307.98-5.9L307.98-5.9Q309.57-5.9 310.45-6.53 311.32-7.15 311.32-8.15L311.32-8.15Q311.32-9.35 310.07-9.93 308.82-10.5 306.02-11.2L306.02-11.2Q303.02-11.9 301.02-12.68 299.02-13.45 297.57-15.13 296.13-16.8 296.13-19.65L296.13-19.65Q296.13-22.05 297.45-24.03 298.77-26 301.35-27.15 303.93-28.3 307.48-28.3L307.48-28.3Q312.73-28.3 315.75-25.7 318.77-23.1 319.23-18.8L319.23-18.8 311.32-18.8Q311.13-20.25 310.05-21.1 308.98-21.95 307.23-21.95L307.23-21.95Q305.73-21.95 304.93-21.38 304.13-20.8 304.13-19.8L304.13-19.8Q304.13-18.6 305.4-18 306.68-17.4 309.38-16.8L309.38-16.8Q312.48-16 314.43-15.23 316.38-14.45 317.85-12.73 319.32-11 319.38-8.1L319.38-8.1Q319.38-5.65 318-3.73 316.63-1.8 314.05-0.7 311.48 0.4 308.07 0.4L308.07 0.4ZM337.12-7.25L340.17-7.25 340.17 0 335.82 0Q331.17 0 328.57-2.27 325.97-4.55 325.97-9.7L325.97-9.7 325.97-20.8 322.57-20.8 322.57-27.9 325.97-27.9 325.97-34.7 334.52-34.7 334.52-27.9 340.12-27.9 340.12-20.8 334.52-20.8 334.52-9.6Q334.52-8.35 335.12-7.8 335.72-7.25 337.12-7.25L337.12-7.25Z" opacity="1" transform="matrix(1,0,0,1,0,0)" fill="#01ff70" class="undefined-text-0" data-fill-palette-color="quaternary" id="text-0"></path></svg></g></svg></g></svg></g></svg></g><g><svg viewBox="0 0 51.55171318942466 44.601513986117276" height="44.601513986117276" width="51.55171318942466"><g><svg version="1.0" xmlns="http://www.w3.org/2000/svg" xmlns:xlink="http://www.w3.org/1999/xlink" x="0" y="0" viewBox="0 0 100 86.51800537109375" enable-background="new 0 0 100 86.52" xml:space="preserve" width="51.55171318942466" height="44.601513986117276" class="icon-icon-0" data-fill-palette-color="quaternary" id="icon-0"><path d="M100 36.044v-9.522h-6.289L50 0 6.287 26.521H0v9.522h2.858v40.951H0v9.524h100v-9.524h-2.857V36.044H100zM50 11.138l25.354 15.384H24.646L50 11.138zM30.953 76.995H12.381V36.044h18.572V76.995zM59.523 76.995H40.477V36.044h19.046V76.995zM87.619 76.995H69.047V36.044h18.572V76.995z" fill="#01ff70" data-fill-palette-color="quaternary"></path></svg></g></svg></g></svg></g></svg></g></svg></g></svg></g><defs></defs></svg><rect width="512" height="320" fill="none" stroke="none" visibility="hidden"></rect></g></svg></g></svg>