<?xml version="1.0" encoding="UTF-8"?>
<svg xmlns="http://www.w3.org/2000/svg" xmlns:xlink="http://www.w3.org/1999/xlink" width="100px" height="100px" viewBox="120 124 50 50" version="1.1">
<defs>
<clipPath id="clip1">
  <path d="M 84 84.375 L 216 84.375 L 216 215.625 L 84 215.625 Z M 84 84.375 "/>
</clipPath>
<clipPath id="clip2">
  <path d="M 126.828125 144.863281 L 192 144.863281 L 192 155.132812 L 126.828125 155.132812 Z M 126.828125 144.863281 "/>
</clipPath>
<clipPath id="clip3">
  <path d="M 108 142.902344 L 124.40625 142.902344 L 124.40625 157.09375 L 108 157.09375 Z M 108 142.902344 "/>
</clipPath>
</defs>
<g id="surface1">
<rect x="0" y="0" width="300" height="300" style="fill:rgb(0%,0%,0%);fill-opacity:1;stroke:none;"/>
<g clip-path="url(#clip1)" clip-rule="nonzero">
<path style=" stroke:none;fill-rule:nonzero;fill:rgb(0%,0%,0%);fill-opacity:1;" d="M 84.375 150 C 84.375 113.757812 113.757812 84.375 150 84.375 C 186.242188 84.375 215.625 113.757812 215.625 150 C 215.625 186.242188 186.242188 215.625 150 215.625 C 113.757812 215.625 84.375 186.242188 84.375 150 Z M 84.375 150 "/>
</g>
<g clip-path="url(#clip2)" clip-rule="nonzero">
<path style=" stroke:none;fill-rule:nonzero;fill:rgb(0.392157%,100%,43.921569%);fill-opacity:1;" d="M 126.832031 149.1875 C 126.832031 148.519531 126.976562 147.925781 127.265625 147.398438 C 127.554688 146.878906 127.957031 146.46875 128.472656 146.179688 C 128.988281 145.886719 129.574219 145.742188 130.230469 145.742188 C 131.03125 145.742188 131.71875 145.953125 132.289062 146.375 C 132.859375 146.800781 133.242188 147.378906 133.433594 148.109375 L 131.625 148.109375 C 131.492188 147.828125 131.300781 147.613281 131.054688 147.464844 C 130.804688 147.316406 130.523438 147.242188 130.210938 147.242188 C 129.703125 147.242188 129.292969 147.417969 128.976562 147.773438 C 128.664062 148.125 128.507812 148.597656 128.507812 149.1875 C 128.507812 149.777344 128.664062 150.25 128.976562 150.601562 C 129.292969 150.953125 129.703125 151.132812 130.210938 151.132812 C 130.523438 151.132812 130.804688 151.058594 131.054688 150.910156 C 131.300781 150.761719 131.492188 150.546875 131.625 150.265625 L 133.433594 150.265625 C 133.242188 150.996094 132.859375 151.570312 132.289062 151.992188 C 131.71875 152.414062 131.03125 152.621094 130.230469 152.621094 C 129.574219 152.621094 128.988281 152.476562 128.472656 152.1875 C 127.957031 151.894531 127.554688 151.488281 127.265625 150.96875 C 126.976562 150.449219 126.832031 149.855469 126.832031 149.1875 Z M 134.117188 149.878906 C 134.117188 149.328125 134.222656 148.84375 134.429688 148.425781 C 134.640625 148.007812 134.921875 147.6875 135.28125 147.464844 C 135.640625 147.238281 136.042969 147.125 136.484375 147.125 C 136.863281 147.125 137.195312 147.203125 137.480469 147.359375 C 137.765625 147.511719 137.988281 147.714844 138.140625 147.964844 L 138.140625 147.203125 L 139.789062 147.203125 L 139.789062 152.574219 L 138.140625 152.574219 L 138.140625 151.8125 C 137.980469 152.066406 137.757812 152.265625 137.472656 152.421875 C 137.1875 152.574219 136.855469 152.652344 136.476562 152.652344 C 136.039062 152.652344 135.640625 152.539062 135.28125 152.308594 C 134.921875 152.082031 134.640625 151.757812 134.429688 151.335938 C 134.222656 150.917969 134.117188 150.429688 134.117188 149.878906 Z M 138.140625 149.890625 C 138.140625 149.480469 138.027344 149.15625 137.796875 148.917969 C 137.570312 148.679688 137.292969 148.5625 136.96875 148.5625 C 136.640625 148.5625 136.363281 148.679688 136.132812 148.910156 C 135.90625 149.144531 135.792969 149.46875 135.792969 149.878906 C 135.792969 150.289062 135.90625 150.617188 136.132812 150.855469 C 136.363281 151.097656 136.640625 151.21875 136.96875 151.21875 C 137.292969 151.21875 137.570312 151.097656 137.796875 150.863281 C 138.027344 150.625 138.140625 150.300781 138.140625 149.890625 Z M 142.625 147.964844 C 142.785156 147.714844 143.007812 147.511719 143.289062 147.359375 C 143.574219 147.203125 143.902344 147.125 144.28125 147.125 C 144.726562 147.125 145.125 147.238281 145.484375 147.464844 C 145.84375 147.6875 146.128906 148.007812 146.335938 148.425781 C 146.546875 148.84375 146.648438 149.328125 146.648438 149.878906 C 146.648438 150.429688 146.546875 150.917969 146.335938 151.335938 C 146.128906 151.757812 145.84375 152.082031 145.484375 152.308594 C 145.125 152.539062 144.726562 152.652344 144.28125 152.652344 C 143.910156 152.652344 143.582031 152.574219 143.292969 152.421875 C 143.007812 152.265625 142.785156 152.066406 142.625 151.824219 L 142.625 155.136719 L 140.980469 155.136719 L 140.980469 147.203125 L 142.625 147.203125 Z M 144.976562 149.878906 C 144.976562 149.46875 144.859375 149.144531 144.632812 148.910156 C 144.40625 148.679688 144.125 148.5625 143.792969 148.5625 C 143.464844 148.5625 143.1875 148.679688 142.957031 148.917969 C 142.730469 149.15625 142.617188 149.480469 142.617188 149.890625 C 142.617188 150.300781 142.730469 150.625 142.957031 150.863281 C 143.1875 151.097656 143.464844 151.21875 143.792969 151.21875 C 144.117188 151.21875 144.398438 151.097656 144.628906 150.855469 C 144.859375 150.617188 144.976562 150.289062 144.976562 149.878906 Z M 148.34375 146.644531 C 148.054688 146.644531 147.816406 146.558594 147.636719 146.390625 C 147.453125 146.21875 147.359375 146.011719 147.359375 145.761719 C 147.359375 145.503906 147.453125 145.289062 147.636719 145.121094 C 147.816406 144.949219 148.054688 144.863281 148.34375 144.863281 C 148.625 144.863281 148.855469 144.949219 149.039062 145.121094 C 149.222656 145.289062 149.3125 145.503906 149.3125 145.761719 C 149.3125 146.011719 149.222656 146.21875 149.039062 146.390625 C 148.855469 146.558594 148.625 146.644531 148.34375 146.644531 Z M 147.515625 147.203125 L 149.160156 147.203125 L 149.160156 152.574219 L 147.515625 152.574219 Z M 152.761719 151.179688 L 153.347656 151.179688 L 153.347656 152.574219 L 152.507812 152.574219 C 151.914062 152.574219 151.449219 152.429688 151.113281 152.136719 C 150.78125 151.84375 150.613281 151.367188 150.613281 150.707031 L 150.613281 148.570312 L 149.957031 148.570312 L 149.957031 147.203125 L 150.613281 147.203125 L 150.613281 145.894531 L 152.257812 145.894531 L 152.257812 147.203125 L 153.335938 147.203125 L 153.335938 148.570312 L 152.257812 148.570312 L 152.257812 150.726562 C 152.257812 150.886719 152.296875 151.003906 152.375 151.074219 C 152.453125 151.144531 152.582031 151.179688 152.761719 151.179688 Z M 153.933594 149.878906 C 153.933594 149.328125 154.039062 148.84375 154.246094 148.425781 C 154.457031 148.007812 154.738281 147.6875 155.097656 147.464844 C 155.457031 147.238281 155.859375 147.125 156.300781 147.125 C 156.679688 147.125 157.011719 147.203125 157.296875 147.359375 C 157.582031 147.511719 157.804688 147.714844 157.957031 147.964844 L 157.957031 147.203125 L 159.601562 147.203125 L 159.601562 152.574219 L 157.957031 152.574219 L 157.957031 151.8125 C 157.796875 152.066406 157.574219 152.265625 157.289062 152.421875 C 157.003906 152.574219 156.671875 152.652344 156.292969 152.652344 C 155.855469 152.652344 155.457031 152.539062 155.097656 152.308594 C 154.738281 152.082031 154.457031 151.757812 154.246094 151.335938 C 154.039062 150.917969 153.933594 150.429688 153.933594 149.878906 Z M 157.957031 149.890625 C 157.957031 149.480469 157.84375 149.15625 157.613281 148.917969 C 157.386719 148.679688 157.109375 148.5625 156.78125 148.5625 C 156.457031 148.5625 156.179688 148.679688 155.949219 148.910156 C 155.722656 149.144531 155.609375 149.46875 155.609375 149.878906 C 155.609375 150.289062 155.722656 150.617188 155.949219 150.855469 C 156.179688 151.097656 156.457031 151.21875 156.78125 151.21875 C 157.109375 151.21875 157.386719 151.097656 157.613281 150.863281 C 157.84375 150.625 157.957031 150.300781 157.957031 149.890625 Z M 160.796875 145.453125 L 162.441406 145.453125 L 162.441406 152.574219 L 160.796875 152.574219 Z M 163.355469 149.1875 C 163.355469 148.519531 163.5 147.925781 163.789062 147.398438 C 164.078125 146.878906 164.480469 146.46875 164.996094 146.179688 C 165.511719 145.886719 166.097656 145.742188 166.753906 145.742188 C 167.554688 145.742188 168.242188 145.953125 168.8125 146.375 C 169.382812 146.800781 169.765625 147.378906 169.957031 148.109375 L 168.148438 148.109375 C 168.011719 147.828125 167.824219 147.613281 167.578125 147.464844 C 167.328125 147.316406 167.046875 147.242188 166.734375 147.242188 C 166.226562 147.242188 165.816406 147.417969 165.5 147.773438 C 165.1875 148.125 165.03125 148.597656 165.03125 149.1875 C 165.03125 149.777344 165.1875 150.25 165.5 150.601562 C 165.816406 150.953125 166.226562 151.132812 166.734375 151.132812 C 167.046875 151.132812 167.328125 151.058594 167.578125 150.910156 C 167.824219 150.761719 168.011719 150.546875 168.148438 150.265625 L 169.957031 150.265625 C 169.765625 150.996094 169.382812 151.570312 168.8125 151.992188 C 168.242188 152.414062 167.554688 152.621094 166.753906 152.621094 C 166.097656 152.621094 165.511719 152.476562 164.996094 152.1875 C 164.480469 151.894531 164.078125 151.488281 163.789062 150.96875 C 163.5 150.449219 163.355469 149.855469 163.355469 149.1875 Z M 173.414062 152.652344 C 172.886719 152.652344 172.414062 152.539062 171.996094 152.316406 C 171.574219 152.089844 171.242188 151.769531 171.003906 151.351562 C 170.761719 150.933594 170.640625 150.449219 170.640625 149.890625 C 170.640625 149.335938 170.761719 148.851562 171.007812 148.429688 C 171.25 148.011719 171.585938 147.6875 172.007812 147.464844 C 172.429688 147.238281 172.90625 147.125 173.433594 147.125 C 173.957031 147.125 174.433594 147.238281 174.855469 147.464844 C 175.28125 147.6875 175.613281 148.011719 175.859375 148.429688 C 176.101562 148.851562 176.222656 149.335938 176.222656 149.890625 C 176.222656 150.441406 176.101562 150.925781 175.855469 151.347656 C 175.605469 151.765625 175.269531 152.089844 174.84375 152.316406 C 174.417969 152.539062 173.9375 152.652344 173.414062 152.652344 Z M 173.414062 151.226562 C 173.726562 151.226562 173.996094 151.113281 174.21875 150.878906 C 174.4375 150.648438 174.550781 150.320312 174.550781 149.890625 C 174.550781 149.460938 174.441406 149.128906 174.226562 148.898438 C 174.011719 148.667969 173.746094 148.550781 173.433594 148.550781 C 173.113281 148.550781 172.84375 148.664062 172.632812 148.890625 C 172.421875 149.121094 172.316406 149.453125 172.316406 149.890625 C 172.316406 150.320312 172.421875 150.648438 172.628906 150.878906 C 172.835938 151.113281 173.097656 151.226562 173.414062 151.226562 Z M 176.773438 149.878906 C 176.773438 149.328125 176.875 148.84375 177.085938 148.425781 C 177.292969 148.007812 177.578125 147.6875 177.9375 147.464844 C 178.296875 147.238281 178.699219 147.125 179.140625 147.125 C 179.519531 147.125 179.851562 147.203125 180.136719 147.359375 C 180.421875 147.511719 180.640625 147.714844 180.796875 147.964844 L 180.796875 147.203125 L 182.441406 147.203125 L 182.441406 152.574219 L 180.796875 152.574219 L 180.796875 151.8125 C 180.636719 152.066406 180.410156 152.265625 180.125 152.421875 C 179.839844 152.574219 179.507812 152.652344 179.128906 152.652344 C 178.695312 152.652344 178.296875 152.539062 177.9375 152.308594 C 177.578125 152.082031 177.292969 151.757812 177.085938 151.335938 C 176.875 150.917969 176.773438 150.429688 176.773438 149.878906 Z M 180.796875 149.890625 C 180.796875 149.480469 180.679688 149.15625 180.453125 148.917969 C 180.226562 148.679688 179.949219 148.5625 179.621094 148.5625 C 179.292969 148.5625 179.015625 148.679688 178.789062 148.910156 C 178.5625 149.144531 178.445312 149.46875 178.445312 149.878906 C 178.445312 150.289062 178.5625 150.617188 178.789062 150.855469 C 179.015625 151.097656 179.292969 151.21875 179.621094 151.21875 C 179.949219 151.21875 180.226562 151.097656 180.453125 150.863281 C 180.679688 150.625 180.796875 150.300781 180.796875 149.890625 Z M 185.816406 152.652344 C 185.351562 152.652344 184.933594 152.570312 184.566406 152.410156 C 184.203125 152.25 183.914062 152.03125 183.699219 151.75 C 183.488281 151.472656 183.371094 151.160156 183.347656 150.8125 L 184.972656 150.8125 C 184.992188 151 185.078125 151.148438 185.230469 151.265625 C 185.386719 151.382812 185.574219 151.4375 185.800781 151.4375 C 186.003906 151.4375 186.164062 151.398438 186.277344 151.316406 C 186.386719 151.238281 186.445312 151.132812 186.445312 151.003906 C 186.445312 150.851562 186.363281 150.738281 186.203125 150.664062 C 186.042969 150.589844 185.78125 150.507812 185.421875 150.417969 C 185.039062 150.328125 184.71875 150.234375 184.460938 150.132812 C 184.203125 150.035156 183.984375 149.878906 183.796875 149.664062 C 183.613281 149.449219 183.519531 149.15625 183.519531 148.792969 C 183.519531 148.484375 183.605469 148.203125 183.773438 147.949219 C 183.941406 147.695312 184.191406 147.496094 184.523438 147.347656 C 184.855469 147.199219 185.25 147.125 185.703125 147.125 C 186.378906 147.125 186.910156 147.292969 187.296875 147.628906 C 187.683594 147.960938 187.90625 148.402344 187.964844 148.957031 L 186.445312 148.957031 C 186.417969 148.769531 186.335938 148.621094 186.199219 148.511719 C 186.0625 148.402344 185.878906 148.347656 185.65625 148.347656 C 185.464844 148.347656 185.316406 148.386719 185.214844 148.460938 C 185.109375 148.535156 185.058594 148.636719 185.058594 148.761719 C 185.058594 148.917969 185.140625 149.03125 185.304688 149.109375 C 185.46875 149.1875 185.722656 149.265625 186.070312 149.339844 C 186.46875 149.441406 186.792969 149.542969 187.042969 149.644531 C 187.292969 149.742188 187.511719 149.902344 187.699219 150.125 C 187.890625 150.347656 187.988281 150.644531 187.996094 151.015625 C 187.996094 151.328125 187.90625 151.609375 187.730469 151.855469 C 187.554688 152.105469 187.300781 152.296875 186.96875 152.441406 C 186.640625 152.582031 186.253906 152.652344 185.816406 152.652344 Z M 191.410156 151.179688 L 191.996094 151.179688 L 191.996094 152.574219 L 191.160156 152.574219 C 190.5625 152.574219 190.097656 152.429688 189.765625 152.136719 C 189.429688 151.84375 189.261719 151.367188 189.261719 150.707031 L 189.261719 148.570312 L 188.609375 148.570312 L 188.609375 147.203125 L 189.261719 147.203125 L 189.261719 145.894531 L 190.910156 145.894531 L 190.910156 147.203125 L 191.988281 147.203125 L 191.988281 148.570312 L 190.910156 148.570312 L 190.910156 150.726562 C 190.910156 150.886719 190.949219 151.003906 191.023438 151.074219 C 191.101562 151.144531 191.230469 151.179688 191.410156 151.179688 Z M 191.410156 151.179688 "/>
</g>
<g clip-path="url(#clip3)" clip-rule="nonzero">
<path style=" stroke:none;fill-rule:nonzero;fill:rgb(0.392157%,100%,43.921569%);fill-opacity:1;" d="M 124.40625 148.816406 L 124.40625 147.253906 L 123.371094 147.253906 L 116.203125 142.902344 L 109.03125 147.253906 L 108 147.253906 L 108 148.816406 L 108.46875 148.816406 L 108.46875 155.535156 L 108 155.535156 L 108 157.097656 L 124.40625 157.097656 L 124.40625 155.535156 L 123.9375 155.535156 L 123.9375 148.816406 Z M 116.203125 144.730469 L 120.363281 147.253906 L 112.042969 147.253906 Z M 113.078125 155.535156 L 110.03125 155.535156 L 110.03125 148.816406 L 113.078125 148.816406 Z M 117.765625 155.535156 L 114.640625 155.535156 L 114.640625 148.816406 L 117.765625 148.816406 Z M 122.375 155.535156 L 119.328125 155.535156 L 119.328125 148.816406 L 122.375 148.816406 Z M 122.375 155.535156 "/>
</g>
</g>
</svg>
