<svg width="44" height="41" viewBox="0 0 44 41" fill="none" xmlns="http://www.w3.org/2000/svg">
<path d="M22.2199 23.1137H21.9082C17.7466 22.9942 14.6299 19.9704 14.6299 16.2462C14.6299 12.4537 17.9482 9.36166 22.0182 9.36166C26.0882 9.36166 29.4066 12.4537 29.4066 16.2462C29.4103 18.0306 28.6676 19.746 27.336 21.0282C26.0044 22.3105 24.1889 23.0586 22.2749 23.1137H22.2199ZM21.9999 11.9071C19.4332 11.9071 17.3616 13.8546 17.3616 16.2292C17.356 17.3477 17.818 18.4244 18.6495 19.2311C19.481 20.0378 20.6169 20.5113 21.8166 20.5512C21.9565 20.5332 22.0983 20.5332 22.2382 20.5512C23.4258 20.4922 24.544 20.0112 25.3625 19.2072C26.181 18.4032 26.6376 17.3374 26.6382 16.2292C26.6382 13.8546 24.5666 11.9071 21.9999 11.9071ZM21.9999 38.8646C17.0682 38.8646 12.3566 37.1562 8.70823 34.0471C8.55041 33.9117 8.42851 33.744 8.35215 33.5573C8.27579 33.3705 8.24706 33.1697 8.26823 32.9708C8.50656 30.9379 9.86323 29.0417 12.1182 27.6408C17.5816 24.2583 26.4366 24.2583 31.8816 27.6408C34.1366 29.0587 35.4932 30.9379 35.7316 32.9708C35.7866 33.3808 35.6216 33.7737 35.2916 34.0471C31.6656 37.1485 26.9218 38.8678 21.9999 38.8646ZM11.1466 32.6292C14.1885 35.0042 18.0313 36.3046 21.9999 36.3021C25.9782 36.3021 29.8099 35.0037 32.8532 32.6292C32.5232 31.5871 31.6432 30.5792 30.3416 29.7592C25.8316 26.9575 18.1866 26.9575 13.6399 29.7592C12.3382 30.5792 11.4766 31.5871 11.1466 32.6292Z" fill="#2476F1"/>
<path d="M22.0001 38.8646C11.1284 38.8646 2.29175 30.6304 2.29175 20.5C2.29175 10.3696 11.1284 2.13541 22.0001 2.13541C32.8717 2.13541 41.7084 10.3696 41.7084 20.5C41.7084 30.6304 32.8717 38.8646 22.0001 38.8646ZM22.0001 4.69791C12.6501 4.69791 5.04175 11.7875 5.04175 20.5C5.04175 29.2125 12.6501 36.3021 22.0001 36.3021C31.3501 36.3021 38.9584 29.2125 38.9584 20.5C38.9584 11.7875 31.3501 4.69791 22.0001 4.69791Z" fill="#2476F1"/>
</svg>
